<?xml version="1.0" encoding="UTF-8" standalone="no"?>
<!DOCTYPE svg PUBLIC "-//W3C//DTD SVG 1.1//EN" "http://www.w3.org/Graphics/SVG/1.1/DTD/svg11.dtd">
<!-- Created with Vectornator (http://vectornator.io/) -->
<svg height="100%" stroke-miterlimit="10" style="fill-rule:nonzero;clip-rule:evenodd;stroke-linecap:round;stroke-linejoin:round;" version="1.1" viewBox="0 0 1024 1024" width="100%" xml:space="preserve" xmlns="http://www.w3.org/2000/svg" xmlns:vectornator="http://vectornator.io" xmlns:xlink="http://www.w3.org/1999/xlink">
<defs/>
<g id="Layer-1" vectornator:layerName="Layer 1">
<path d="M201.928 231.446C187.241 260.748 176.499 292.606 170.581 326.511C155.747 410.542 172.554 492.893 212.45 561.287L455.337 276.166L202.001 231.446L201.928 231.446Z" fill="#ffffff" fill-rule="nonzero" opacity="1" stroke="none" vectornator:layerName="path"/>
<path d="M493.846 40.4424C374.522 46.5804 267.108 114.316 209.456 217.127L580.289 282.598L493.773 40.4424L493.846 40.4424Z" fill="#ffffff" fill-rule="nonzero" opacity="1" stroke="none" vectornator:layerName="path 1"/>
<path d="M822.082 542.07C836.77 512.769 847.511 480.91 853.43 447.005C868.263 362.974 851.457 280.77 811.633 212.376L568.672 497.351L822.009 542.07L822.082 542.07Z" fill="#ffffff" fill-rule="nonzero" opacity="1" stroke="none" vectornator:layerName="path 2"/>
<path d="M803.223 198.638C752.731 120.526 671.113 62.8001 572.249 45.3362C551.351 41.6827 530.526 39.9291 510.066 40.0022L636.551 394.102L803.223 198.638Z" fill="#ffffff" fill-rule="nonzero" opacity="1" stroke="none" vectornator:layerName="path 3"/>
<path d="M220.852 575.097C271.343 653.137 352.963 710.789 451.682 728.253C473.968 732.199 496.036 733.88 517.884 733.514L387.526 379.414L220.852 575.097Z" fill="#ffffff" fill-rule="nonzero" opacity="1" stroke="none" vectornator:layerName="path 4"/>
<path d="M534.108 732.859C651.825 725.406 757.488 658.108 814.483 556.393L445.108 491.215L534.035 732.859L534.108 732.859Z" fill="#ffffff" fill-rule="nonzero" opacity="1" stroke="none" vectornator:layerName="path 5"/>
<path d="M34.8856 621.718L34.8856 731.25L141.934 731.25" fill="none" opacity="1" stroke="#ffffff" stroke-linecap="butt" stroke-linejoin="miter" stroke-width="43.8424" vectornator:layerName="path 6"/>
<path d="M141.934 42.2692L34.8856 42.2692L34.8856 151.802" fill="none" opacity="1" stroke="#ffffff" stroke-linecap="butt" stroke-linejoin="miter" stroke-width="43.8424" vectornator:layerName="path 7"/>
<path d="M882.066 731.25L989.114 731.25L989.114 621.718" fill="none" opacity="1" stroke="#ffffff" stroke-linecap="butt" stroke-linejoin="miter" stroke-width="43.8424" vectornator:layerName="path 8"/>
<path d="M989.114 151.802L989.114 42.2692L882.066 42.2692" fill="none" opacity="1" stroke="#ffffff" stroke-linecap="butt" stroke-linejoin="miter" stroke-width="43.8424" vectornator:layerName="path 9"/>
<path d="M141.934 183.88C154.283 183.88 164.294 173.869 164.294 161.52C164.294 149.171 154.283 139.161 141.934 139.161C129.585 139.161 119.574 149.171 119.574 161.52C119.574 173.869 129.585 183.88 141.934 183.88Z" fill="#ffffff" fill-rule="nonzero" opacity="1" stroke="none" vectornator:layerName="path 10"/>
<g opacity="1" vectornator:layerName="Group 1">
<path d="M115.216 887.045L34.1867 887.045L34.1867 957.164L50.6254 957.164C53.5349 957.164 55.62 957.722 56.8808 958.837C58.1416 959.952 58.772 961.431 58.772 963.274C58.772 965.02 58.1416 966.474 56.8808 967.638C55.62 968.802 53.5349 969.384 50.6254 969.384L8.14661 969.384C5.23711 969.384 3.15196 968.802 1.89118 967.638C0.630393 966.474 0 965.02 0 963.274C0 961.431 0.630393 959.952 1.89118 958.837C3.15196 957.722 5.23711 957.164 8.14661 957.164L21.9668 957.164L21.9668 811.398L14.402 811.398C11.3956 811.398 9.26192 810.84 8.00114 809.725C6.74035 808.609 6.10996 807.13 6.10996 805.288C6.10996 803.445 6.74035 801.966 8.00114 800.851C9.26192 799.735 11.3956 799.178 14.402 799.178L50.6254 799.178C53.5349 799.178 55.62 799.735 56.8808 800.851C58.1416 801.966 58.772 803.445 58.772 805.288C58.772 807.13 58.1416 808.609 56.8808 809.725C55.62 810.84 53.5349 811.398 50.6254 811.398L34.1867 811.398L34.1867 874.825L115.216 874.825L115.216 811.398L98.9231 811.398C96.0136 811.398 93.9285 810.84 92.6677 809.725C91.4069 808.609 90.7765 807.13 90.7765 805.288C90.7765 803.445 91.3827 801.966 92.595 800.851C93.8073 799.735 95.9167 799.178 98.9231 799.178L135.146 799.178C138.153 799.178 140.287 799.735 141.547 800.851C142.808 801.966 143.439 803.445 143.439 805.288C143.439 807.13 142.808 808.609 141.547 809.725C140.287 810.84 138.153 811.398 135.146 811.398L127.582 811.398L127.582 957.164L141.402 957.164C144.311 957.164 146.397 957.722 147.657 958.837C148.918 959.952 149.549 961.431 149.549 963.274C149.549 965.02 148.918 966.474 147.657 967.638C146.397 968.802 144.311 969.384 141.402 969.384L98.9231 969.384C96.0136 969.384 93.9285 968.802 92.6677 967.638C91.4069 966.474 90.7765 965.02 90.7765 963.274C90.7765 961.431 91.3827 959.952 92.595 958.837C93.8073 957.722 95.9167 957.164 98.9231 957.164L115.216 957.164L115.216 887.045Z" fill="#ffffff" fill-rule="nonzero" opacity="1" stroke="none"/>
<path d="M292.842 912.503L212.539 912.503L196.101 957.164L219.522 957.164C222.432 957.164 224.517 957.722 225.778 958.837C227.038 959.952 227.669 961.431 227.669 963.274C227.669 965.02 227.038 966.474 225.778 967.638C224.517 968.802 222.432 969.384 219.522 969.384L173.843 969.384C170.933 969.384 168.848 968.802 167.587 967.638C166.327 966.474 165.696 965.02 165.696 963.274C165.696 961.431 166.327 959.952 167.587 958.837C168.848 957.722 170.933 957.164 173.843 957.164L183.299 957.164L237.27 811.398L201.192 811.398C198.283 811.398 196.198 810.84 194.937 809.725C193.676 808.609 193.046 807.13 193.046 805.288C193.046 803.445 193.676 801.966 194.937 800.851C196.198 799.735 198.283 799.178 201.192 799.178L262.728 799.178L322.373 957.164L331.829 957.164C334.738 957.164 336.824 957.722 338.084 958.837C339.345 959.952 339.976 961.431 339.976 963.274C339.976 965.02 339.345 966.474 338.084 967.638C336.824 968.802 334.738 969.384 331.829 969.384L286.295 969.384C283.289 969.384 281.155 968.802 279.894 967.638C278.634 966.474 278.003 965.02 278.003 963.274C278.003 961.431 278.634 959.952 279.894 958.837C281.155 957.722 283.289 957.164 286.295 957.164L309.571 957.164L292.842 912.503ZM288.186 900.283L254.436 811.398L249.926 811.398L217.194 900.283L288.186 900.283Z" fill="#ffffff" fill-rule="nonzero" opacity="1" stroke="none"/>
<path d="M506.108 884.717C506.108 901.01 502.811 916.116 496.216 930.033C489.621 943.95 480.529 954.788 468.939 962.546C457.35 970.305 444.912 974.184 431.625 974.184C411.937 974.184 394.602 965.82 379.618 949.09C364.634 932.36 357.142 910.903 357.142 884.717C357.142 858.435 364.634 836.953 379.618 820.272C394.602 803.591 411.937 795.25 431.625 795.25C444.912 795.25 457.326 799.129 468.867 806.888C480.408 814.647 489.5 825.46 496.143 839.329C502.787 853.198 506.108 868.327 506.108 884.717ZM493.743 884.717C493.743 864.836 487.972 846.991 476.431 831.182C464.89 815.374 449.955 807.47 431.625 807.47C414.459 807.47 399.79 815.01 387.619 830.091C375.447 845.172 369.362 863.381 369.362 884.717C369.362 907.411 375.738 925.959 388.492 940.361C401.245 954.764 415.623 961.965 431.625 961.965C449.955 961.965 464.89 954.085 476.431 938.325C487.972 922.565 493.743 904.696 493.743 884.717Z" fill="#ffffff" fill-rule="nonzero" opacity="1" stroke="none"/>
<path d="M570.554 902.756L570.554 957.164L593.102 957.164C596.109 957.164 598.243 957.722 599.503 958.837C600.764 959.952 601.395 961.431 601.395 963.274C601.395 965.02 600.764 966.474 599.503 967.638C598.243 968.802 596.109 969.384 593.102 969.384L541.895 969.384C538.986 969.384 536.901 968.802 535.64 967.638C534.379 966.474 533.749 965.02 533.749 963.274C533.749 961.431 534.379 959.952 535.64 958.837C536.901 957.722 538.986 957.164 541.895 957.164L558.334 957.164L558.334 811.398L541.895 811.398C538.986 811.398 536.901 810.84 535.64 809.725C534.379 808.609 533.749 807.13 533.749 805.288C533.749 803.445 534.379 801.966 535.64 800.851C536.901 799.735 538.986 799.178 541.895 799.178L593.102 799.178C596.109 799.178 598.243 799.735 599.503 800.851C600.764 801.966 601.395 803.445 601.395 805.288C601.395 807.13 600.764 808.609 599.503 809.725C598.243 810.84 596.109 811.398 593.102 811.398L570.554 811.398L570.554 886.608L654.929 811.398L641.546 811.398C638.539 811.398 636.406 810.84 635.145 809.725C633.884 808.609 633.254 807.13 633.254 805.288C633.254 803.445 633.884 801.966 635.145 800.851C636.406 799.735 638.539 799.178 641.546 799.178L677.478 799.178C680.388 799.178 682.473 799.735 683.733 800.851C684.994 801.966 685.625 803.445 685.625 805.288C685.625 807.13 684.994 808.609 683.733 809.725C682.473 810.84 680.388 811.398 677.478 811.398L672.532 811.398L605.322 871.479C615.312 875.552 623.604 880.644 630.199 886.754C636.793 892.864 643.146 901.544 649.256 912.794C652.747 919.098 659.148 933.888 668.459 957.164L683.733 957.164C686.74 957.164 688.874 957.722 690.134 958.837C691.395 959.952 692.026 961.431 692.026 963.274C692.026 965.02 691.395 966.474 690.134 967.638C688.874 968.802 686.74 969.384 683.733 969.384L660.167 969.384C647.365 934.373 636.6 911.848 627.871 901.811C619.142 891.773 608.232 884.717 595.139 880.644L570.554 902.756Z" fill="#ffffff" fill-rule="nonzero" opacity="1" stroke="none"/>
<path d="M829.209 912.503L748.906 912.503L732.468 957.164L755.889 957.164C758.799 957.164 760.884 957.722 762.145 958.837C763.405 959.952 764.036 961.431 764.036 963.274C764.036 965.02 763.405 966.474 762.145 967.638C760.884 968.802 758.799 969.384 755.889 969.384L710.21 969.384C707.3 969.384 705.215 968.802 703.955 967.638C702.694 966.474 702.063 965.02 702.063 963.274C702.063 961.431 702.694 959.952 703.955 958.837C705.215 957.722 707.3 957.164 710.21 957.164L719.666 957.164L773.637 811.398L737.559 811.398C734.65 811.398 732.565 810.84 731.304 809.725C730.043 808.609 729.413 807.13 729.413 805.288C729.413 803.445 730.043 801.966 731.304 800.851C732.565 799.735 734.65 799.178 737.559 799.178L799.095 799.178L858.74 957.164L868.196 957.164C871.106 957.164 873.191 957.722 874.451 958.837C875.712 959.952 876.343 961.431 876.343 963.274C876.343 965.02 875.712 966.474 874.451 967.638C873.191 968.802 871.106 969.384 868.196 969.384L822.662 969.384C819.656 969.384 817.522 968.802 816.261 967.638C815.001 966.474 814.37 965.02 814.37 963.274C814.37 961.431 815.001 959.952 816.261 958.837C817.522 957.722 819.656 957.164 822.662 957.164L845.938 957.164L829.209 912.503ZM824.553 900.283L790.803 811.398L786.294 811.398L753.562 900.283L824.553 900.283Z" fill="#ffffff" fill-rule="nonzero" opacity="1" stroke="none"/>
<path d="M973.957 811.398L973.957 957.164L1015.85 957.164C1018.76 957.164 1020.85 957.722 1022.11 958.837C1023.37 959.952 1024 961.431 1024 963.274C1024 965.02 1023.37 966.474 1022.11 967.638C1020.85 968.802 1018.76 969.384 1015.85 969.384L919.84 969.384C916.93 969.384 914.845 968.802 913.584 967.638C912.324 966.474 911.693 965.02 911.693 963.274C911.693 961.431 912.324 959.952 913.584 958.837C914.845 957.722 916.93 957.164 919.84 957.164L961.737 957.164L961.737 811.398L919.84 811.398C916.93 811.398 914.845 810.84 913.584 809.725C912.324 808.609 911.693 807.13 911.693 805.288C911.693 803.445 912.324 801.966 913.584 800.851C914.845 799.735 916.93 799.178 919.84 799.178L1015.85 799.178C1018.76 799.178 1020.85 799.735 1022.11 800.851C1023.37 801.966 1024 803.445 1024 805.288C1024 807.13 1023.37 808.609 1022.11 809.725C1020.85 810.84 1018.76 811.398 1015.85 811.398L973.957 811.398Z" fill="#ffffff" fill-rule="nonzero" opacity="1" stroke="none"/>
</g>
</g>
</svg>
