<?xml version="1.0" encoding="UTF-8" standalone="no"?> <!-- Created with Vectornator for iOS (http://vectornator.io/) --><!DOCTYPE svg PUBLIC "-//W3C//DTD SVG 1.1//EN" "http://www.w3.org/Graphics/SVG/1.1/DTD/svg11.dtd">
<svg xml:space="preserve" xmlns="http://www.w3.org/2000/svg" height="100%" style="fill-rule:nonzero;clip-rule:evenodd;stroke-linecap:round;stroke-linejoin:round;" xmlns:xlink="http://www.w3.org/1999/xlink" xmlns:vectornator="http://vectornator.io" width="100%" viewBox="0 0 841.995 595.35" version="1.1">
<metadata>
<vectornator:setting value="false" key="WDCMYKEnabledKey"/>
<vectornator:setting value="true" key="WDRulersVisible"/>
<vectornator:setting key="WDSnapToGrid" value="false"/>
<vectornator:setting key="WDOutlineMode" value="false"/>
<vectornator:setting value="true" key="VNDimensionsVisible"/>
<vectornator:setting key="WDSnapToPoints" value="false"/>
<vectornator:setting key="VNSnapToGuides" value="true"/>
<vectornator:setting value="false" key="WDDynamicGuides"/>
<vectornator:setting key="VNPencilOnly" value="false"/>
<vectornator:setting value="true" key="WDGuidesVisible"/>
<vectornator:setting key="UndoHistoryDisabled" value="false"/>
<vectornator:setting key="WDSnapToEdges" value="false"/>
<vectornator:setting value="false" key="WDIsolateActiveLayer"/>
<vectornator:setting key="WDUnits" value="Millimeters"/>
<vectornator:setting key="WDDisplayWhiteBackground" value="false"/>
<vectornator:setting key="IsTimeLapseWatermarkDisabled" value="false"/>
</metadata>
<defs/>
<g id="Layer 1" vectornator:layerName="Layer 1">
<path fill="none" stroke-width="13.0297" opacity="1" stroke="#000000" stroke-linejoin="round" stroke-linecap="round" d="M55.4741+347.683C132.105+329.999+225.11+242.548+261.209+174.516C265.782+165.899+277.694+144.009+261.607+142.345C199.417+135.911+109.828+415.202+75.3327+415.202C56.4866+415.202+87.5828+379.024+98.3687+363.57C115.79+338.608+155.268+304.659+190.116+317.498C231.38+332.7+110.884+458.022+234.599+389.386C245.34+383.427+256.087+377.435+266.373+370.719C278.615+362.725+290.203+353.773+302.118+345.3"/>
<path d="M294.175+348.08C370.652+304.378+417.431+236.752+470.917+168.558C478.055+159.457+500.811+143.626+489.981+139.564C421.59+113.918+350.058+299.78+327.934+340.534C315.523+363.396+285.926+434.507+290.203+408.847C297.361+365.903+375.399+289.697+424.05+309.157C458.963+323.122+339.438+456.24+455.03+387.797C470.905+378.397+480.192+368.368+495.541+357.215C521.269+338.521+523.795+337.769+547.571+324.25" stroke="#000000" stroke-linejoin="round" stroke-width="13.0297" stroke-linecap="round" opacity="1" fill="none"/>
<path fill="none" stroke-linecap="round" stroke-linejoin="round" d="M538.047+331.736C616.597+313.609+715.314+224.216+754.292+157.223C760.259+146.967+761.762+130.07+746.23+126.872C679.264+113.085+579.323+319.025+551.799+366.829C550.806+368.554+528.697+407.313+525.243+405.241C496.933+388.255+610.045+291.701+658.025+308.974C706.616+326.466+558.707+383.769+571.717+362.086C574.517+357.42+641.759+420.921+722.993+391.488" opacity="1" stroke-width="13.0297" stroke="#000000"/>
</g>
</svg>
